# xmcd
#
# Track frame offsets:
#	150
#	16618
#	28933
#	44557
#	62561
#	77136
#	92514
#	102778
#	117334
#	129086
#	144767
#	168051
#
# Disc length: 2433 seconds
#
# Revision: 0
# Processed by: cddbd v1.5.1PL2 Copyright (c) Steve Scherf et al.
# Submitted via: audiograbber 1.81.02
#
DISCID=87097f0c
DTITLE=Various Artist - VOICES OF WORSHIP - WORSHIP GOD CD2
DYEAR=2006
DGENRE=Christian Rock
TTITLE0=We Want To See You Lifted High
TTITLE1=Jesus Christ (Once Again)
TTITLE2=Say The Word
TTITLE3=I Shall Not Want
TTITLE4=You Laid Aside Your Majesty
TTITLE5=We Declare Your Majesty
TTITLE6=He`s Got The Whole World In His Hands
TTITLE7=I Just Want To Praise You
TTITLE8=O Soul Are You Weary (Turn Your Eyes)
TTITLE9=Lord Have Mercy
TTITLE10=From Heaven You Came (The Servant King)
TTITLE11=Christ Be Before Me
EXTD=erhältlich unter www.gerth.de
EXTT0=
EXTT1=
EXTT2=
EXTT3=
EXTT4=
EXTT5=
EXTT6=
EXTT7=
EXTT8=
EXTT9=
EXTT10=
EXTT11=
PLAYORDER=
